<svg xmlns="http://www.w3.org/2000/svg" width="271.44" height="81.95" viewBox="0 0 271.44 81.95">
  <g id="Group_69" data-name="Group 69" transform="translate(-119.78 -126.086)">
    <path id="Union_1" data-name="Union 1" d="M253.2,18.41V16.34a5.533,5.533,0,0,0,1.006.112,2.087,2.087,0,0,0,1.281-.413,3.884,3.884,0,0,0,1.019-1.285l.225-.422L255.313,4.7h2.559l.486,4.466a22.546,22.546,0,0,1,.122,2.524h.053c.116-.292.243-.636.382-1.027a12.869,12.869,0,0,1,.564-1.325L261.734,4.7h2.838l-5.9,11.014q-1.535,2.866-4.19,2.863A4.165,4.165,0,0,1,253.2,18.41Zm-93.646,0V16.34a5.549,5.549,0,0,0,1.008.112,2.079,2.079,0,0,0,1.279-.413,3.884,3.884,0,0,0,1.019-1.285l.225-.422L161.668,4.7h2.56l.485,4.466a22.343,22.343,0,0,1,.122,2.524h.052c.116-.292.244-.636.382-1.027a12.672,12.672,0,0,1,.564-1.325L168.089,4.7h2.838l-5.9,11.014q-1.534,2.866-4.19,2.863A4.171,4.171,0,0,1,159.559,18.41Zm-56.515,0V16.34a5.534,5.534,0,0,0,1.007.112,2.082,2.082,0,0,0,1.28-.413,3.884,3.884,0,0,0,1.019-1.285l.226-.422L105.152,4.7h2.561l.486,4.466a22.565,22.565,0,0,1,.121,2.524h.052c.116-.292.243-.636.381-1.027a12.886,12.886,0,0,1,.565-1.325L111.573,4.7h2.838l-5.9,11.014q-1.535,2.866-4.191,2.863A4.169,4.169,0,0,1,103.043,18.41Zm-19.837.163L86.175,4.7H88.17l-.147,1.468H88.1a3.4,3.4,0,0,1,2.75-1.648,2.418,2.418,0,0,1,2,.928,4.075,4.075,0,0,1,.733,2.59,8.628,8.628,0,0,1-.595,3.167,6.01,6.01,0,0,1-1.626,2.412,3.391,3.391,0,0,1-2.274.893,2.315,2.315,0,0,1-1.241-.32,2.972,2.972,0,0,1-.963-1.086h-.069a17.271,17.271,0,0,1-.374,2.542l-.624,2.932ZM88.661,7.2a4.2,4.2,0,0,0-.885,1.554,6.519,6.519,0,0,0-.334,2.139A1.76,1.76,0,0,0,87.762,12a1.061,1.061,0,0,0,.886.412,1.5,1.5,0,0,0,1.11-.595,4.421,4.421,0,0,0,.855-1.631,6.863,6.863,0,0,0,.325-2.048q0-1.517-1.137-1.517A1.584,1.584,0,0,0,88.661,7.2ZM29.842,18.573,32.808,4.7h2l-.147,1.468h.078a3.4,3.4,0,0,1,2.75-1.648,2.418,2.418,0,0,1,2,.928,4.08,4.08,0,0,1,.733,2.59,8.627,8.627,0,0,1-.594,3.167A6,6,0,0,1,38,13.612a3.389,3.389,0,0,1-2.273.893,2.318,2.318,0,0,1-1.242-.32,2.978,2.978,0,0,1-.962-1.086h-.07a17.159,17.159,0,0,1-.374,2.542l-.623,2.932ZM35.3,7.2a4.2,4.2,0,0,0-.884,1.554,6.5,6.5,0,0,0-.335,2.139A1.755,1.755,0,0,0,34.4,12a1.06,1.06,0,0,0,.886.412,1.506,1.506,0,0,0,1.111-.595,4.421,4.421,0,0,0,.855-1.631,6.862,6.862,0,0,0,.324-2.048q0-1.517-1.137-1.517A1.585,1.585,0,0,0,35.3,7.2Zm39.738,9.779a1.476,1.476,0,0,1,.416-1.132,1.663,1.663,0,0,1,1.172-.385,1.526,1.526,0,0,1,.95.262.922.922,0,0,1,.342.781,1.592,1.592,0,0,1-.381,1.11,1.51,1.51,0,0,1-1.18.424Q75.032,18.038,75.034,16.979Zm189.191-2.739a1.152,1.152,0,0,1-.355-.9,1.677,1.677,0,0,1,.464-1.239,1.763,1.763,0,0,1,1.305-.466,1.334,1.334,0,0,1,.946.329,1.184,1.184,0,0,1,.356.921,1.624,1.624,0,0,1-.476,1.216,1.715,1.715,0,0,1-1.25.464A1.417,1.417,0,0,1,264.224,14.241Zm-25.468-.448a2.917,2.917,0,0,1-.659-2.055A10.421,10.421,0,0,1,238.35,9.9l1.1-5.206h2.611l-1.188,5.629a4.545,4.545,0,0,0-.138,1.027c0,.707.311,1.059.936,1.059a1.8,1.8,0,0,0,1.449-.981,8.064,8.064,0,0,0,1.025-2.742L245,4.7h2.612l-.209.967a1.7,1.7,0,0,0,.738-.379,2.046,2.046,0,0,0,.482-.685,6.494,6.494,0,0,0,.36-1.332h2.629l.087.206a5.324,5.324,0,0,1-1.685,2.707,5.145,5.145,0,0,1-2.949,1.112l-1.51,7.042h-2l.183-1.784h-.051a3.636,3.636,0,0,1-3.082,1.957A2.4,2.4,0,0,1,238.756,13.793Zm-41.963-.2A3.972,3.972,0,0,1,196.039,11a7.619,7.619,0,0,1,.607-3,5.229,5.229,0,0,1,1.588-2.193,3.5,3.5,0,0,1,2.194-.756,2.685,2.685,0,0,1,1.307.3,2.485,2.485,0,0,1,.933.988h.068c0-.156.018-.39.05-.7s.117-.847.255-1.61h-2.56l.357-1.716H203.4l.3-1.388h2.611l-.3,1.388h1.336l-.355,1.716h-1.355l-2.185,10.307h-1.987l.121-1.249h-.034a4.518,4.518,0,0,1-1.306,1.1,3.022,3.022,0,0,1-1.377.323A2.542,2.542,0,0,1,196.794,13.591Zm3.036-5.922a3.665,3.665,0,0,0-.837,1.4,5.436,5.436,0,0,0-.308,1.826,1.7,1.7,0,0,0,.33,1.139,1.133,1.133,0,0,0,.9.378,1.5,1.5,0,0,0,1.094-.512,3.91,3.91,0,0,0,.833-1.479,5.818,5.818,0,0,0,.33-1.895,1.624,1.624,0,0,0-.285-1,1.056,1.056,0,0,0-.915-.379A1.611,1.611,0,0,0,199.83,7.669Zm-28.036,5.862a3.648,3.648,0,0,1-1.005-2.75,7.339,7.339,0,0,1,.715-3.254,5.341,5.341,0,0,1,1.94-2.241,5.087,5.087,0,0,1,2.767-.771,3.684,3.684,0,0,1,2.4.7,2.359,2.359,0,0,1,.859,1.929,2.751,2.751,0,0,1-1.45,2.484,8.048,8.048,0,0,1-4.139.877h-.443l-.018.18v.173a1.68,1.68,0,0,0,.448,1.236,1.714,1.714,0,0,0,1.281.454,5.368,5.368,0,0,0,1.371-.165,8.932,8.932,0,0,0,1.492-.577v1.957a7.532,7.532,0,0,1-3.385.742A3.907,3.907,0,0,1,171.794,13.531Zm2.811-6.455a3.32,3.32,0,0,0-.884,1.68h.391a4.351,4.351,0,0,0,2.095-.419,1.264,1.264,0,0,0,.751-1.133q0-.818-.911-.818A2.005,2.005,0,0,0,174.605,7.076Zm-22.96,6.716a2.993,2.993,0,0,1-.634-2.055,9.54,9.54,0,0,1,.208-1.836l1.1-5.206h2.612l-1.189,5.629a4.552,4.552,0,0,0-.139,1.027c0,.707.313,1.059.938,1.059a1.8,1.8,0,0,0,1.448-.981,8.063,8.063,0,0,0,1.025-2.742l.85-3.991h2.611l-2.056,9.637h-2l.184-1.784h-.054a3.629,3.629,0,0,1-3.08,1.957A2.321,2.321,0,0,1,151.645,13.793Zm-20.912-.577a5.1,5.1,0,0,1-1.224-3.65,9.554,9.554,0,0,1,.9-4.157,6.817,6.817,0,0,1,2.412-2.887,6.176,6.176,0,0,1,3.47-.989,8.606,8.606,0,0,1,1.927.193,7.434,7.434,0,0,1,1.805.712L139,4.593a7.4,7.4,0,0,0-1.519-.673,4.524,4.524,0,0,0-1.19-.162,3.309,3.309,0,0,0-2.06.7,4.8,4.8,0,0,0-1.47,2.056,7.624,7.624,0,0,0-.557,2.918,3.242,3.242,0,0,0,.595,2.138,2.358,2.358,0,0,0,1.9.7,8.087,8.087,0,0,0,2.933-.665v2.24a9.607,9.607,0,0,1-3.47.665A4.5,4.5,0,0,1,130.733,13.216Zm-56.572.275A3.646,3.646,0,0,1,73.15,10.8a8.168,8.168,0,0,1,.621-3.27,4.97,4.97,0,0,1,1.792-2.222,4.776,4.776,0,0,1,2.741-.79,3.479,3.479,0,0,1,2.9,1.259,1.947,1.947,0,0,0,.954-.827,4.9,4.9,0,0,0,.555-1.7h2.56l.086.207a5.508,5.508,0,0,1-1.218,2.4,5.628,5.628,0,0,1-2.277,1.366,4.308,4.308,0,0,1,.12,1.112,8.021,8.021,0,0,1-.612,3.223,4.917,4.917,0,0,1-1.766,2.178,4.819,4.819,0,0,1-2.742.77A3.65,3.65,0,0,1,74.161,13.491Zm2.785-6.33a3.854,3.854,0,0,0-.841,1.544A6.8,6.8,0,0,0,75.78,10.8c0,1.065.434,1.594,1.3,1.594a1.6,1.6,0,0,0,1.171-.529,3.568,3.568,0,0,0,.811-1.472,6.955,6.955,0,0,0,.291-2.056q0-1.7-1.241-1.7A1.6,1.6,0,0,0,76.946,7.161ZM1.224,13.216A5.092,5.092,0,0,1,0,9.566,9.567,9.567,0,0,1,.9,5.408,6.818,6.818,0,0,1,3.316,2.522a6.172,6.172,0,0,1,3.47-.989,8.612,8.612,0,0,1,1.927.193,7.461,7.461,0,0,1,1.805.712L9.493,4.593a7.336,7.336,0,0,0-1.518-.673,4.518,4.518,0,0,0-1.189-.162,3.306,3.306,0,0,0-2.06.7A4.8,4.8,0,0,0,3.254,6.51,7.655,7.655,0,0,0,2.7,9.428a3.242,3.242,0,0,0,.594,2.138,2.358,2.358,0,0,0,1.9.7A8.083,8.083,0,0,0,8.122,11.6v2.24a9.6,9.6,0,0,1-3.471.665A4.5,4.5,0,0,1,1.224,13.216ZM232.31,14.332,233.5,8.705a4.59,4.59,0,0,0,.137-1.027q0-1.061-.936-1.06a1.8,1.8,0,0,0-1.449.983,7.968,7.968,0,0,0-1.024,2.741l-.85,3.991h-2.612L229.628.921h2.611c-.224,1.042-.4,1.838-.519,2.4s-.37,1.444-.747,2.661h.07a4.674,4.674,0,0,1,1.2-1.063,2.873,2.873,0,0,1,1.528-.4,2.388,2.388,0,0,1,1.853.72,2.954,2.954,0,0,1,.655,2.056,7.619,7.619,0,0,1-.2,1.552l-1.154,5.49Zm-10.735,0,1.189-5.627a4.547,4.547,0,0,0,.138-1.027q0-1.061-.937-1.06a1.807,1.807,0,0,0-1.449.983,8.055,8.055,0,0,0-1.024,2.741l-.85,3.991h-2.611L218.086,4.7h2L219.9,6.48h.051a3.647,3.647,0,0,1,3.083-1.965,2.383,2.383,0,0,1,1.852.72,2.954,2.954,0,0,1,.654,2.056,7.51,7.51,0,0,1-.2,1.552l-1.153,5.49Zm-15.437,0L208.2,4.7h2.612l-2.057,9.637Zm-20.365,0,1.189-5.627a4.593,4.593,0,0,0,.137-1.027q0-1.061-.936-1.06a1.8,1.8,0,0,0-1.449.983,7.985,7.985,0,0,0-1.024,2.741l-.85,3.991h-2.612L182.285,4.7h1.994L184.1,6.48h.051a3.649,3.649,0,0,1,3.082-1.965,2.388,2.388,0,0,1,1.852.72,2.958,2.958,0,0,1,.654,2.056,7.619,7.619,0,0,1-.2,1.552l-1.155,5.49Zm-40.594,0,1.19-5.627a4.55,4.55,0,0,0,.138-1.027q0-1.061-.935-1.06a1.8,1.8,0,0,0-1.45.983,7.984,7.984,0,0,0-1.024,2.741l-.851,3.991h-2.611L142.5.921h2.612c-.225,1.042-.4,1.838-.52,2.4s-.371,1.444-.747,2.661h.07a4.649,4.649,0,0,1,1.2-1.063,2.868,2.868,0,0,1,1.527-.4,2.387,2.387,0,0,1,1.853.72,2.958,2.958,0,0,1,.655,2.056,7.56,7.56,0,0,1-.2,1.552l-1.155,5.49Zm-45.867,0L102.176.921h2.611l-2.863,13.412Zm-31.811,0,1.188-5.627a4.513,4.513,0,0,0,.14-1.027q0-1.061-.938-1.06a1.8,1.8,0,0,0-1.448.983,8.021,8.021,0,0,0-1.024,2.741l-.85,3.991H61.956L64.821.921h2.611c-.226,1.042-.4,1.838-.522,2.4s-.369,1.444-.746,2.661h.071a4.649,4.649,0,0,1,1.2-1.063,2.869,2.869,0,0,1,1.526-.4,2.387,2.387,0,0,1,1.853.72,2.954,2.954,0,0,1,.655,2.056,7.56,7.56,0,0,1-.2,1.552l-1.155,5.49Zm-15.437,0L54.121,4.7h2.612l-2.057,9.637Zm-5.19,0,1.189-5.627A4.555,4.555,0,0,0,48.2,7.678q0-1.061-.938-1.06a1.806,1.806,0,0,0-1.449.983,8.057,8.057,0,0,0-1.023,2.741l-.85,3.991H41.33L44.195.921h2.611c-.226,1.042-.4,1.838-.522,2.4s-.369,1.444-.745,2.661h.07a4.663,4.663,0,0,1,1.2-1.063,2.87,2.87,0,0,1,1.527-.4,2.387,2.387,0,0,1,1.853.72,2.954,2.954,0,0,1,.655,2.056,7.619,7.619,0,0,1-.2,1.552l-1.155,5.49Zm-26.013,0L22.918,4.7h2.611l-2.056,9.637Zm-5.191,0,1.19-5.627A4.507,4.507,0,0,0,17,7.678q0-1.061-.939-1.06a1.806,1.806,0,0,0-1.448.983,8.038,8.038,0,0,0-1.024,2.741l-.85,3.991H10.127L12.991.921H15.6c-.227,1.042-.4,1.838-.521,2.4s-.371,1.444-.746,2.661h.069a4.653,4.653,0,0,1,1.2-1.063,2.867,2.867,0,0,1,1.526-.4,2.384,2.384,0,0,1,1.853.72,2.95,2.95,0,0,1,.655,2.056,7.551,7.551,0,0,1-.2,1.552l-1.155,5.49Zm102.792-3.653.461-2.156h4.546l-.46,2.156Zm146.49-.528,1.363-8.419h2.95l-2.221,8.419Zm-6.212-6.515V3.421A24.923,24.923,0,0,0,260.667.81h2.907V.956a13.176,13.176,0,0,1-1.335,1.313,21.14,21.14,0,0,1-1.685,1.367Zm-81.064,0a13.1,13.1,0,0,1-1.328-1.361,18.319,18.319,0,0,1-1.883,1.361h-1.761v-.2l.572-.543A19.579,19.579,0,0,0,175.1.99h2.761A14.119,14.119,0,0,0,179.3,3.437v.2Zm-69.1,0V3.421A25.026,25.026,0,0,0,110.506.81h2.907V.956a13.137,13.137,0,0,1-1.337,1.313,21.288,21.288,0,0,1-1.683,1.367Zm-54.311,0V3.421A24.9,24.9,0,0,0,56.195.81H59.1V.956a13.112,13.112,0,0,1-1.336,1.313,21.289,21.289,0,0,1-1.683,1.367Zm154.343-1.2a1.465,1.465,0,0,1,.413-1.133,1.64,1.64,0,0,1,1.167-.385,1.5,1.5,0,0,1,.963.269.928.928,0,0,1,.33.765,1.621,1.621,0,0,1-.382,1.118,1.514,1.514,0,0,1-1.18.426C209.048,3.5,208.612,3.147,208.612,2.439Zm-185.278,0a1.468,1.468,0,0,1,.413-1.133A1.64,1.64,0,0,1,24.913.921a1.5,1.5,0,0,1,.963.269.926.926,0,0,1,.33.765,1.617,1.617,0,0,1-.382,1.118,1.514,1.514,0,0,1-1.18.426C23.769,3.5,23.334,3.147,23.334,2.439ZM178.8,1.954V1.8A17.661,17.661,0,0,0,180.219,0h2.152V.085a9.733,9.733,0,0,1-.911.858,13.609,13.609,0,0,1-1.31,1.011Z" transform="translate(121.954 189.464)" fill="#fff"/>
    <path id="Path_26" data-name="Path 26" d="M218.837,179.3c2.284-1.645,1.408-6.316.49-11.259-.511-2.721-1.083-5.8-.716-6.914s2.67-3.24,4.7-5.122c3.671-3.412,7.131-6.625,6.339-9.293l-.02-.047-.011-.05c-.883-2.639-5.564-3.295-10.532-3.993-2.745-.382-5.859-.819-6.794-1.511s-2.24-3.554-3.383-6.077c-2.086-4.575-4.051-8.905-6.867-8.947s-4.911,4.233-7.13,8.761c-1.212,2.483-2.6,5.3-3.553,5.97s-4.081,1.022-6.834,1.332c-5.011.562-9.753,1.094-10.674,3.751a3.258,3.258,0,0,0,.064,2.1c.734,2.19,3.482,4.79,6.084,7.355,1.86,1.833,5.4,2.185,8.6,1.256,1.269-.369,6.618-2.94,5.031-5.309s-4.774-6.79-4.774-6.79l2.826-.641,11.575,7.51L213,149.307c3.307-1.039,6.094-.585,6.453.555.383,1.214-1.664,3.1-4.97,4.143l-9.18,3.87-5.175,12.771-2.685,1.09s.074-5.444.014-8.294-5.92-1.9-7.172-1.476c-3.152,1.065-5.852,3.377-6.324,5.943-.66,3.589-1.419,7.291-.763,9.505a3.266,3.266,0,0,0,1.154,1.759c2.281,1.651,6.472-.623,10.9-3.027,2.435-1.319,5.2-2.82,6.367-2.814s3.921,1.52,6.34,2.862C212.38,178.637,216.546,180.941,218.837,179.3Z" transform="translate(-53.928 0)" fill="#f16112"/>
    <path id="Path_27" data-name="Path 27" d="M115.41,363h11.345l11.932-32.744H127.84L121.1,350.237l-6.772-19.978H103.39Z" transform="translate(80.048 -190.844)" fill="#fff"/>
    <path id="Path_28" data-name="Path 28" d="M188.3,344.57a65.978,65.978,0,0,0-.454-8.363A13.736,13.736,0,0,0,185.484,330a10.053,10.053,0,0,0-2.345-2.3,13.8,13.8,0,0,0-3.035-1.612,16.208,16.208,0,0,0-3.488-.9,25.246,25.246,0,0,0-3.621-.266h-.85a5.028,5.028,0,0,0-.85.058,14.862,14.862,0,0,0-7.124,1.862,11.434,11.434,0,0,0-4.925,4.669,18.307,18.307,0,0,0-1.129,2.541,18.967,18.967,0,0,0-.63,2.276,14.8,14.8,0,0,0-.293,2.3q-.058,1.184-.059,2.63a31.592,31.592,0,0,0,.63,6.339,16.26,16.26,0,0,0,2.067,5.394,10.564,10.564,0,0,0,3.841,3.575q2.4,1.33,7.622,1.33h11.961l4.486-8.246H176.6A19.559,19.559,0,0,1,170.65,349q-1.819-.739-3.079-3.931h20.551Zm-10.921-9.664a10.979,10.979,0,0,1,.778,3.191H167.336a6.07,6.07,0,0,1,1.715-4.018,4.654,4.654,0,0,1,3.943-1.3,9.345,9.345,0,0,1,1.451.119,3.115,3.115,0,0,1,1.129.355A3.894,3.894,0,0,1,177.378,334.905Zm3.5-19.149H174.4l-3.313,6.737h4.134l5.658-6.53Z" transform="translate(61.129 -185.739)" fill="#fff"/>
    <path id="Path_29" data-name="Path 29" d="M224.045,330.259a24.664,24.664,0,0,0-8,1.152,8.679,8.679,0,0,0-4.954,4.048,16.455,16.455,0,0,0-2.066,5.32,35.038,35.038,0,0,0,.146,12.087,16.836,16.836,0,0,0,2.214,5.526,8.607,8.607,0,0,0,4.911,3.546,26.509,26.509,0,0,0,7.754,1.005h1.7l4.6-7.152v5.763q0,3.517-1.056,4.4a4.428,4.428,0,0,1-2.169,1.211q-.616.118-1.335.221a11.32,11.32,0,0,1-1.626.1h-11.7l4.691,8.157H227.24q2.053,0,3.607-.119a23.725,23.725,0,0,0,2.756-.354,8.946,8.946,0,0,0,4.514-2.541,9.946,9.946,0,0,0,2.771-5.039,31.062,31.062,0,0,0,.63-6.546V330.259Zm.674,8.865q.792-.089,1.715-.118t1.949-.029h1.965l-.117,15.78h-1.964a10.676,10.676,0,0,1-4.119-.428,5.958,5.958,0,0,1-2.609-1.669,6.079,6.079,0,0,1-1.319-2.675,11.886,11.886,0,0,1-.249-3.442,12.316,12.316,0,0,1,.718-4.818,4.5,4.5,0,0,1,2.77-2.333A5.337,5.337,0,0,1,224.718,339.124Z" transform="translate(43.024 -190.844)" fill="#fff"/>
    <path id="Path_30" data-name="Path 30" d="M266.035,321.059h10.319v-8.54H266.035Zm0,35.7h10.319V324.014H266.035Z" transform="translate(22.793 -184.599)" fill="#fff"/>
    <path id="Path_31" data-name="Path 31" d="M288.685,333.576h14.659q1.435,0,2.287.089a3.558,3.558,0,0,1,1.289.325,1.534,1.534,0,0,1,.66.664,9.344,9.344,0,0,1,.454,1.079v1.33H297.275a15.748,15.748,0,0,0-5.365.767,6.889,6.889,0,0,0-3.518,3.369,13.417,13.417,0,0,0-1.378,6.354,14.679,14.679,0,0,0,.337,3.043,15.161,15.161,0,0,0,1.392,3.666,6.288,6.288,0,0,0,3.943,2.821,25.222,25.222,0,0,0,6.933.813h3.959l4.455-6.413V357.9h10.2V339.486a39.972,39.972,0,0,0-.513-6.886,8.569,8.569,0,0,0-2.359-4.728,8.017,8.017,0,0,0-4.4-2.29,36.007,36.007,0,0,0-5.952-.429H292.848Zm19.349,11.053v5.023h-7.446a5.031,5.031,0,0,1-1.716-.236,2.3,2.3,0,0,1-.967-.635,2.191,2.191,0,0,1-.453-.813,2.793,2.793,0,0,1-.118-.769,2.263,2.263,0,0,1,.294-1.21,2.347,2.347,0,0,1,1.363-1.227,10.492,10.492,0,0,1,1.891-.132ZM310,315.756h-6.479l-3.312,6.737h4.134l5.657-6.53Z" transform="translate(15.408 -185.739)" fill="#fff"/>
    <path id="Path_32" data-name="Path 32" d="M341.472,330.259V363h10.2v-17.85a22.714,22.714,0,0,1,.205-3.664,3.446,3.446,0,0,1,.937-1.862,2.432,2.432,0,0,1,1.041-.562,7.088,7.088,0,0,1,1.539-.266q.851-.059,1.774-.06h3.092l4.75-8.481h-9.205l-4.134,6.413v-6.413Z" transform="translate(-3.762 -190.844)" fill="#fff"/>
    <path id="Path_33" data-name="Path 33" d="M407.121,342.435a65.839,65.839,0,0,0-.455-8.364,13.733,13.733,0,0,0-2.359-6.206,10.053,10.053,0,0,0-2.346-2.305,13.816,13.816,0,0,0-3.034-1.611,16.2,16.2,0,0,0-3.489-.9,25.241,25.241,0,0,0-3.62-.266h-.851a5.027,5.027,0,0,0-.85.058,14.866,14.866,0,0,0-7.124,1.862,11.439,11.439,0,0,0-4.925,4.669,18.227,18.227,0,0,0-1.129,2.541,18.841,18.841,0,0,0-.63,2.276,14.794,14.794,0,0,0-.294,2.3q-.059,1.184-.059,2.63a31.6,31.6,0,0,0,.63,6.339,16.274,16.274,0,0,0,2.066,5.394,10.576,10.576,0,0,0,3.841,3.575q2.4,1.33,7.622,1.33h11.961l4.486-8.246H395.424a19.573,19.573,0,0,1-5.952-.649q-1.818-.739-3.078-3.931h20.551Zm-10.92-9.664a10.964,10.964,0,0,1,.776,3.191H386.16a6.063,6.063,0,0,1,1.715-4.018,4.653,4.653,0,0,1,3.943-1.3,9.339,9.339,0,0,1,1.451.119,3.119,3.119,0,0,1,1.129.355A3.9,3.9,0,0,1,396.2,332.771Zm-6.143-12.412h3.489l.528-1.417h1.085a11.243,11.243,0,0,0,2.814-.237,2.982,2.982,0,0,0,1.657-1.507,5.407,5.407,0,0,0,.689-2.718,5.251,5.251,0,0,0-.675-2.838,2.932,2.932,0,0,0-1.554-1.64,9.389,9.389,0,0,0-2.814-.31h-5.22l1.085,3.339h2.58a6.552,6.552,0,0,1,2.389.3,1.137,1.137,0,0,1,.66,1.152.918.918,0,0,1-.571.872,3.685,3.685,0,0,1-1.6.281h-3.4Z" transform="translate(-15.901 -183.604)" fill="#fff"/>
  </g>
</svg>
