<svg id="cash" xmlns="http://www.w3.org/2000/svg" width="107.396" height="98.118" viewBox="0 0 107.396 98.118">
  <path id="Path_123" data-name="Path 123" d="M67.35,14.061A4.55,4.55,0,0,0,62.8,9.511,4.55,4.55,0,0,0,67.35,4.96a4.435,4.435,0,0,0-.024-.47A4.732,4.732,0,0,0,62.539.409H13.5A10.931,10.931,0,0,0,8.615,1.562L0,5.87V42.276H13.05a38.325,38.325,0,0,0,19.715-5.461H62.539a4.732,4.732,0,0,0,4.787-4.082,4.546,4.546,0,0,0-4.527-5.02,4.551,4.551,0,0,0,0-9.1A4.55,4.55,0,0,0,67.35,14.061Zm0,0" transform="translate(0 -0.408)" fill="#f2a46f"/>
  <path id="Path_124" data-name="Path 124" d="M112.238,133.059h69.17v36.405h-69.17Zm0,0" transform="translate(-92.215 -109.394)" fill="#628a27"/>
  <path id="Path_125" data-name="Path 125" d="M112.238,92.246h69.17v36.405h-69.17Zm0,0" transform="translate(-92.215 -75.862)" fill="#6b962a"/>
  <path id="Path_126" data-name="Path 126" d="M112.238,51.434h69.17V87.839h-69.17Zm0,0" transform="translate(-92.215 -42.331)" fill="#88b337"/>
  <path id="Path_127" data-name="Path 127" d="M214.27,87.839h50.968V51.434H250.676Zm0,0" transform="translate(-176.044 -42.331)" fill="#80a834"/>
  <path id="Path_128" data-name="Path 128" d="M204.019,114.09H156.691a3.64,3.64,0,0,0-3.64-3.641V95.886a3.64,3.64,0,0,0,3.64-3.64h47.327a3.64,3.64,0,0,0,3.64,3.64v14.562A3.641,3.641,0,0,0,204.019,114.09Zm0,0" transform="translate(-125.747 -75.862)" fill="#6b962a"/>
  <path id="Path_129" data-name="Path 129" d="M273.288,103.167c0-6.031-4.075-10.921-9.1-10.921s-9.1,4.89-9.1,10.921,4.075,10.922,9.1,10.922S273.288,109.2,273.288,103.167Zm0,0" transform="translate(-209.579 -75.862)" fill="#88b337"/>
  <path id="Path_130" data-name="Path 130" d="M397.934,143.262h3.64v3.64h-3.64Zm0,0" transform="translate(-326.943 -117.777)" fill="#88b337"/>
  <path id="Path_131" data-name="Path 131" d="M193.863,143.262H197.5v3.64h-3.641Zm0,0" transform="translate(-159.278 -117.777)" fill="#88b337"/>
  <path id="Path_132" data-name="Path 132" d="M0,76.917H5.461A14.563,14.563,0,0,0,20.023,62.355H34.585A10.921,10.921,0,0,0,45.507,51.434H0" transform="translate(0 -42.331)" fill="#ffb782"/>
  <path id="Path_133" data-name="Path 133" d="M108.407,391.345l-.464.253H93.988a5.461,5.461,0,1,0,0,10.921H90.346l-20.7-9.48a5.948,5.948,0,0,0-8.426,5.408v.4a5.949,5.949,0,0,0,3.289,5.321l21.222,10.612a21.852,21.852,0,0,0,9.769,2.3h38.529V391.594A26.286,26.286,0,0,0,108.407,391.345Zm0,0" transform="translate(-50.301 -318.964)" fill="#ffb782"/>
  <path id="Path_134" data-name="Path 134" d="M469.355,407.551h23.664v25.484H469.355Zm0,0" transform="translate(-385.623 -334.917)" fill="#de4c3c"/>
  <path id="Path_135" data-name="Path 135" d="M499.965,499.379h3.64v3.641h-3.64Zm0,0" transform="translate(-410.772 -410.363)" fill="#7a4930"/>
  <path id="Path_136" data-name="Path 136" d="M251.062,462.187H236.5a1.82,1.82,0,1,1,0-3.64h14.562a1.82,1.82,0,1,1,0,3.64Zm0,0" transform="translate(-192.813 -376.816)" fill="#f2a46f"/>
</svg>
