<svg id="mortgage" xmlns="http://www.w3.org/2000/svg" width="96.118" height="96.118" viewBox="0 0 96.118 96.118">
  <path id="Path_178" data-name="Path 178" d="M273.438,8.286l28.173,16.572V16.572L273.438,0,245.266,16.572v8.286Zm0,0" transform="translate(-205.493)" fill="#de4c3c"/>
  <path id="Path_179" data-name="Path 179" d="M286.094,63.708V92.465h43.087V63.708L307.637,51.035Zm0,0" transform="translate(-239.692 -42.749)" fill="#dadddf"/>
  <path id="Path_180" data-name="Path 180" d="M517.274,0h-6.629V8.773l6.629,3.9Zm0,0" transform="translate(-427.785)" fill="#c94536"/>
  <path id="Path_181" data-name="Path 181" d="M449.4,163.309h9.944v23.2H449.4Zm0,0" transform="translate(-376.485 -136.794)" fill="#875339"/>
  <path id="Path_182" data-name="Path 182" d="M255.473,306.207H308.5v6.629H255.473Zm0,0" transform="translate(-214.043 -256.491)" fill="#dadddf"/>
  <path id="Path_183" data-name="Path 183" d="M326.922,163.309h13.257v9.943H326.922Zm0,0" transform="translate(-273.891 -136.794)" fill="#87ced9"/>
  <path id="Path_184" data-name="Path 184" d="M357.543,163.309h3.314v9.943h-3.314Zm0,0" transform="translate(-299.541 -136.794)" fill="#5eb3d1"/>
  <path id="Path_199" data-name="Path 199" d="M.3,387.863H63.274v33.144H.3Zm0,0" transform="translate(-0.301 -324.889)" fill="#628a27"/>
  <path id="Path_200" data-name="Path 200" d="M.3,347.035H63.274v33.144H.3Zm0,0" transform="translate(-0.301 -290.69)" fill="#6b962a"/>
  <path id="Path_201" data-name="Path 201" d="M.3,306.207H63.274v33.144H.3Zm0,0" transform="translate(-0.301 -256.491)" fill="#80a834"/>
  <path id="Path_202" data-name="Path 202" d="M.3,265.379H63.274v33.144H.3Zm0,0" transform="translate(-0.301 -222.292)" fill="#88b337"/>
  <path id="Path_203" data-name="Path 203" d="M87.531,326.094H44.443a3.313,3.313,0,0,0-3.314-3.314V309.521a3.314,3.314,0,0,0,3.314-3.314H87.531a3.313,3.313,0,0,0,3.314,3.314v13.258A3.313,3.313,0,0,0,87.531,326.094Zm0,0" transform="translate(-34.5 -256.491)" fill="#6b962a"/>
  <path id="Path_204" data-name="Path 204" d="M152.875,316.15a9.943,9.943,0,1,1-9.943-9.943A9.943,9.943,0,0,1,152.875,316.15Zm0,0" transform="translate(-111.445 -256.491)" fill="#88b337"/>
  <path id="Path_205" data-name="Path 205" d="M286.094,357.242h3.314v3.314h-3.314Zm0,0" transform="translate(-239.692 -299.24)" fill="#88b337"/>
  <path id="Path_206" data-name="Path 206" d="M81.957,357.242h3.314v3.314H81.957Zm0,0" transform="translate(-68.699 -299.24)" fill="#88b337"/>
  <path id="Path_207" data-name="Path 207" d="M173.816,265.379h6.629v53.03h-6.629Zm0,0" transform="translate(-145.644 -222.292)" fill="#fdb62f"/>
  <path id="Path_208" data-name="Path 208" d="M173.816,469.516h6.629V489.4h-6.629Zm0,0" transform="translate(-145.644 -393.285)" fill="#ffa230"/>
  <path id="Path_209" data-name="Path 209" d="M449.4,193.666v9.943h9.944V183.723Zm0,0" transform="translate(-376.485 -153.894)" fill="#75462e"/>
</svg>
