<svg id="online-payment" xmlns="http://www.w3.org/2000/svg" width="71.51" height="98.118" viewBox="0 0 71.51 98.118">
  <path id="Path_137" data-name="Path 137" d="M46.99,66.208A4.989,4.989,0,0,0,42,61.219H5.415a4.989,4.989,0,0,0-4.989,4.99v3.326H46.99Zm0,0" transform="translate(-0.426 -51.241)" fill="#dadddf"/>
  <path id="Path_138" data-name="Path 138" d="M.426,523.7a4.989,4.989,0,0,0,4.989,4.989H42A4.989,4.989,0,0,0,46.99,523.7v-3.327H.426Zm0,0" transform="translate(-0.426 -435.558)" fill="#dadddf"/>
  <path id="Path_139" data-name="Path 139" d="M.426,112.238H46.99v66.52H.426Zm0,0" transform="translate(-0.426 -93.945)" fill="#4398d1"/>
  <path id="Path_140" data-name="Path 140" d="M.426,220.021V230H46.99V173.457Zm0,0" transform="translate(-0.426 -145.186)" fill="#3582bd"/>
  <path id="Path_141" data-name="Path 141" d="M71.173,175.12l-3.326-1.663-3.327,1.663-3.326-1.663-3.326,1.663-3.326-1.663-3.326,1.663-3.326-1.663-3.326,1.663-3.327-1.663V225.01H74.5V173.457Zm0,0" transform="translate(-34.586 -145.186)" fill="#87ced9"/>
  <path id="Path_142" data-name="Path 142" d="M71.852,265.289h13.3v3.326h-13.3Zm0,0" transform="translate(-60.21 -222.051)" fill="#5eb3d1"/>
  <path id="Path_143" data-name="Path 143" d="M173.883,265.289h6.652v3.326h-6.652Zm0,0" transform="translate(-145.612 -222.051)" fill="#5eb3d1"/>
  <path id="Path_144" data-name="Path 144" d="M71.852,306.1h13.3v3.326h-13.3Zm0,0" transform="translate(-60.21 -256.212)" fill="#5eb3d1"/>
  <path id="Path_145" data-name="Path 145" d="M173.883,306.1h6.652v3.326h-6.652Zm0,0" transform="translate(-145.612 -256.212)" fill="#5eb3d1"/>
  <path id="Path_146" data-name="Path 146" d="M71.852,346.914h13.3v3.326h-13.3Zm0,0" transform="translate(-60.21 -290.372)" fill="#5eb3d1"/>
  <path id="Path_147" data-name="Path 147" d="M71.852,387.73h13.3v3.326h-13.3Zm0,0" transform="translate(-60.21 -324.535)" fill="#5eb3d1"/>
  <path id="Path_148" data-name="Path 148" d="M71.852,428.543h13.3v3.326h-13.3Zm0,0" transform="translate(-60.21 -358.696)" fill="#5eb3d1"/>
  <path id="Path_149" data-name="Path 149" d="M71.852,469.355h13.3v3.326h-13.3Zm0,0" transform="translate(-60.21 -392.857)" fill="#5eb3d1"/>
  <path id="Path_150" data-name="Path 150" d="M173.883,469.355h6.652v3.326h-6.652Zm0,0" transform="translate(-145.612 -392.857)" fill="#5eb3d1"/>
  <path id="Path_151" data-name="Path 151" d="M102.461,224.473h14.967V227.8H102.461Zm0,0" transform="translate(-85.831 -187.887)" fill="#5eb3d1"/>
  <path id="Path_152" data-name="Path 152" d="M251.285,18.789a18.3,18.3,0,1,0-36.586,0,18.3,18.3,0,1,0,36.586,0Zm0,0" transform="translate(-179.775 0)" fill="#fdb62f"/>
  <path id="Path_153" data-name="Path 153" d="M288.289,43.248l-7.65-1.909a2.074,2.074,0,0,1,.5-4.084h9.577v-3.32h-4.99V30.609H282.4v3.326h-1.254a5.4,5.4,0,0,0-1.309,10.644l7.65,1.909a2.074,2.074,0,0,1-.5,4.085H277.41V53.9H282.4v3.326h3.326V53.892h1.254a5.4,5.4,0,0,0,1.309-10.643Zm0,0" transform="translate(-230.846 -25.62)" fill="#fd7b2f"/>
  <path id="Path_154" data-name="Path 154" d="M174.414,333.117l-6.751-6.609v18.278l-12.987-13.041a5.9,5.9,0,0,0-8.35,8.35l14.613,14.613a21.39,21.39,0,0,0-6.263,15.12v1.581H179.3V344.926A16.7,16.7,0,0,0,174.414,333.117Zm0,0" transform="translate(-121.099 -273.292)" fill="#ffb782"/>
  <path id="Path_155" data-name="Path 155" d="M280.657,434.825a1.665,1.665,0,0,1-1.177-.5l-3.326-3.341a1.663,1.663,0,0,1,2.258-2.442c.033.032.066.064.1.1l3.326,3.341a1.661,1.661,0,0,1-1.178,2.842Zm0,0" transform="translate(-230.767 -358.327)" fill="#f2a46f"/>
</svg>
