<svg id="debit-card" xmlns="http://www.w3.org/2000/svg" width="96.119" height="96.118" viewBox="0 0 96.119 96.118">
  <path id="Path_156" data-name="Path 156" d="M466.441,78.912,449.105,61.543v69.6h23.2V93.015A19.889,19.889,0,0,0,466.441,78.912Zm0,0" transform="translate(-376.187 -51.6)" fill="#ffb782"/>
  <path id="Path_157" data-name="Path 157" d="M13.55,67.17.444,33.148a6.628,6.628,0,0,1,3.8-8.568L66.106.753a6.627,6.627,0,0,1,8.567,3.8L87.779,38.579a6.628,6.628,0,0,1-3.8,8.568L22.119,70.974A6.631,6.631,0,0,1,13.55,67.17Zm0,0" transform="translate(0 -0.307)" fill="#de4c3c"/>
  <path id="Path_158" data-name="Path 158" d="M106.365,101.961,32.2,130.71l4.939,12.82,74.173-28.736Zm0,0" transform="translate(-26.968 -85.455)" fill="#7a4930"/>
  <path id="Path_159" data-name="Path 159" d="M0,43.388V6.93A6.629,6.629,0,0,1,6.633.3H72.921A6.629,6.629,0,0,1,79.55,6.93V43.388a6.629,6.629,0,0,1-6.629,6.629H6.633A6.629,6.629,0,0,1,0,43.388Zm0,0" transform="translate(-0.003 -0.301)" fill="#4398d1"/>
  <path id="Path_160" data-name="Path 160" d="M156.279.3h-7.043L99.52,50.017h56.76a6.629,6.629,0,0,0,6.629-6.629V6.93A6.629,6.629,0,0,0,156.279.3Zm0,0" transform="translate(-83.361 -0.301)" fill="#3e8cc7"/>
  <path id="Path_161" data-name="Path 161" d="M40.832,163.609h6.629v3.314H40.832Zm0,0" transform="translate(-34.202 -137.094)" fill="#5eb3d1"/>
  <path id="Path_162" data-name="Path 162" d="M40.832,224.852h6.629v3.314H40.832Zm0,0" transform="translate(-34.202 -188.393)" fill="#5eb3d1"/>
  <path id="Path_163" data-name="Path 163" d="M224.555,224.852h6.629v3.314h-6.629Zm0,0" transform="translate(-188.096 -188.393)" fill="#5eb3d1"/>
  <path id="Path_164" data-name="Path 164" d="M102.074,163.609H108.7v3.314h-6.628Zm0,0" transform="translate(-85.501 -137.094)" fill="#5eb3d1"/>
  <path id="Path_165" data-name="Path 165" d="M163.313,163.609h6.629v3.314h-6.629Zm0,0" transform="translate(-136.797 -137.094)" fill="#5eb3d1"/>
  <path id="Path_166" data-name="Path 166" d="M224.555,163.609h6.629v3.314h-6.629Zm0,0" transform="translate(-188.096 -137.094)" fill="#5eb3d1"/>
  <path id="Path_167" data-name="Path 167" d="M418.484,41.129H421.8V46.1h-3.314Zm0,0" transform="translate(-350.538 -34.5)" fill="#5eb3d1"/>
  <path id="Path_168" data-name="Path 168" d="M377.656,41.129h3.314V46.1h-3.314Zm0,0" transform="translate(-316.339 -34.5)" fill="#5eb3d1"/>
  <path id="Path_169" data-name="Path 169" d="M336.828,41.129h3.314V46.1h-3.314Zm0,0" transform="translate(-282.14 -34.5)" fill="#5eb3d1"/>
  <path id="Path_170" data-name="Path 170" d="M296,41.129h3.314V46.1H296Zm0,0" transform="translate(-247.944 -34.5)" fill="#5eb3d1"/>
  <path id="Path_171" data-name="Path 171" d="M408.277,490.23h29.83V506.8h-29.83Zm0,0" transform="translate(-341.988 -410.684)" fill="#88b337"/>
  <path id="Path_172" data-name="Path 172" d="M315.1,173.879a7.184,7.184,0,0,0-10.374,9.935L318.3,198.629a22.35,22.35,0,0,0,.452,22.93l1.205,1.927H341.5v-23.2Zm0,0" transform="translate(-253.671 -143.941)" fill="#ffb782"/>
  <path id="Path_173" data-name="Path 173" d="M438.9,520.852h3.315v3.315H438.9Zm0,0" transform="translate(-367.637 -436.334)" fill="#6b962a"/>
  <path id="Path_174" data-name="Path 174" d="M40.832,51.735V43.781a2.651,2.651,0,0,1,2.652-2.652h7.954a2.65,2.65,0,0,1,2.651,2.652v7.954a2.65,2.65,0,0,1-2.651,2.652H43.484A2.651,2.651,0,0,1,40.832,51.735Zm0,0" transform="translate(-34.202 -34.5)" fill="#fdb62f"/>
  <path id="Path_175" data-name="Path 175" d="M40.832,71.75H45.8v3.314H40.832Zm0,0" transform="translate(-34.202 -60.149)" fill="#fd7b2f"/>
  <path id="Path_176" data-name="Path 176" d="M91.867,71.75h4.971v3.314H91.867Zm0,0" transform="translate(-76.951 -60.149)" fill="#fd7b2f"/>
  <path id="Path_177" data-name="Path 177" d="M488.115,296.143a1.654,1.654,0,0,1-1.171-.486l-6.629-6.629a1.657,1.657,0,0,1,2.343-2.344l6.629,6.629a1.658,1.658,0,0,1-1.172,2.829Zm0,0" transform="translate(-401.94 -239.798)" fill="#f2a46f"/>
</svg>
