<svg xmlns="http://www.w3.org/2000/svg" width="161.012" height="40" viewBox="0 0 161.012 40">
  <g id="Group_700" data-name="Group 700" transform="translate(-184.357 -823.696)">
    <g id="Group_699" data-name="Group 699" transform="translate(224.777 829.618)">
      <path id="Path_391" data-name="Path 391" d="M354.067,897.681h6.585l6.925-19h-6.3l-3.913,11.594-3.93-11.594h-6.347Z" transform="translate(-347.091 -870.943)" fill="#1a1818"/>
      <path id="Path_392" data-name="Path 392" d="M446.553,873.441a38.352,38.352,0,0,0-.264-4.854,7.97,7.97,0,0,0-1.37-3.6,5.835,5.835,0,0,0-1.361-1.338,8.014,8.014,0,0,0-1.761-.935,9.409,9.409,0,0,0-2.025-.523,14.7,14.7,0,0,0-2.1-.154h-.494a2.9,2.9,0,0,0-.493.034,8.626,8.626,0,0,0-4.135,1.081,6.631,6.631,0,0,0-2.859,2.71,10.533,10.533,0,0,0-.655,1.475,10.932,10.932,0,0,0-.366,1.321,8.576,8.576,0,0,0-.17,1.338q-.034.687-.034,1.526a18.338,18.338,0,0,0,.366,3.679,9.43,9.43,0,0,0,1.2,3.131,6.136,6.136,0,0,0,2.229,2.075,9.56,9.56,0,0,0,4.424.772h6.942l2.6-4.785h-6.466a11.333,11.333,0,0,1-3.454-.377,3.761,3.761,0,0,1-1.786-2.281h11.927Zm-6.338-5.609a6.375,6.375,0,0,1,.451,1.853h-6.279a3.522,3.522,0,0,1,1-2.332,2.7,2.7,0,0,1,2.289-.755,5.406,5.406,0,0,1,.842.069,1.81,1.81,0,0,1,.655.206A2.262,2.262,0,0,1,440.215,867.833Zm2.033-11.114h-3.761l-1.922,3.91h2.4l3.284-3.79Z" transform="translate(-408.254 -854.438)" fill="#1a1818"/>
      <path id="Path_393" data-name="Path 393" d="M515.321,878.678a14.313,14.313,0,0,0-4.645.669A5.036,5.036,0,0,0,507.8,881.7a9.549,9.549,0,0,0-1.2,3.088,20.327,20.327,0,0,0,.085,7.015,9.774,9.774,0,0,0,1.285,3.207,5,5,0,0,0,2.85,2.059,15.4,15.4,0,0,0,4.5.583h.987l2.671-4.151v3.344q0,2.041-.612,2.556a2.568,2.568,0,0,1-1.259.7q-.357.069-.774.129a6.606,6.606,0,0,1-.944.06H508.6l2.723,4.734h5.853q1.191,0,2.093-.068a13.745,13.745,0,0,0,1.6-.206,5.194,5.194,0,0,0,2.62-1.475,5.772,5.772,0,0,0,1.608-2.924,18.034,18.034,0,0,0,.366-3.8V878.678Zm.391,5.145q.46-.052,1-.069t1.131-.017h1.14l-.068,9.158h-1.14a6.2,6.2,0,0,1-2.391-.249,3.459,3.459,0,0,1-1.514-.969,3.525,3.525,0,0,1-.766-1.552,6.908,6.908,0,0,1-.145-2,7.141,7.141,0,0,1,.417-2.8,2.612,2.612,0,0,1,1.607-1.354A3.1,3.1,0,0,1,515.712,883.823Z" transform="translate(-466.783 -870.943)" fill="#1a1818"/>
      <path id="Path_394" data-name="Path 394" d="M593.352,856.774h5.989v-4.956h-5.989Zm0,20.718h5.989v-19h-5.989Z" transform="translate(-532.186 -850.755)" fill="#1a1818"/>
      <path id="Path_395" data-name="Path 395" d="M626.087,867.061h8.508q.832,0,1.327.051a2.086,2.086,0,0,1,.748.189.893.893,0,0,1,.383.386,5.407,5.407,0,0,1,.263.626v.772h-6.244a9.141,9.141,0,0,0-3.114.445,4,4,0,0,0-2.042,1.956,7.79,7.79,0,0,0-.8,3.687,8.519,8.519,0,0,0,.2,1.766,8.789,8.789,0,0,0,.808,2.127,3.648,3.648,0,0,0,2.288,1.638,14.631,14.631,0,0,0,4.024.472h2.3l2.586-3.722v3.722h5.921V870.491a23.2,23.2,0,0,0-.3-4,4.969,4.969,0,0,0-1.369-2.744,4.655,4.655,0,0,0-2.552-1.329,20.95,20.95,0,0,0-3.454-.249H628.5Zm11.229,6.415v2.915h-4.321a2.919,2.919,0,0,1-1-.137,1.331,1.331,0,0,1-.561-.369,1.276,1.276,0,0,1-.264-.472,1.636,1.636,0,0,1-.068-.446,1.311,1.311,0,0,1,.17-.7,1.364,1.364,0,0,1,.791-.712,6.1,6.1,0,0,1,1.1-.077Zm1.14-16.757H634.7l-1.923,3.91h2.4l3.284-3.79Z" transform="translate(-556.061 -854.438)" fill="#1a1818"/>
      <path id="Path_396" data-name="Path 396" d="M707.571,878.678v19h5.922V887.322a13.239,13.239,0,0,1,.119-2.127,2,2,0,0,1,.544-1.08,1.416,1.416,0,0,1,.6-.326,4.126,4.126,0,0,1,.893-.154q.494-.034,1.03-.035h1.795l2.757-4.922h-5.343l-2.4,3.722v-3.722Z" transform="translate(-618.035 -870.943)" fill="#1a1818"/>
      <path id="Path_397" data-name="Path 397" d="M777.873,866.54a38.16,38.16,0,0,0-.264-4.854,7.969,7.969,0,0,0-1.369-3.6,5.844,5.844,0,0,0-1.362-1.338,8.016,8.016,0,0,0-1.761-.935,9.409,9.409,0,0,0-2.025-.523,14.694,14.694,0,0,0-2.1-.154H768.5a2.9,2.9,0,0,0-.493.034,8.627,8.627,0,0,0-4.135,1.081,6.637,6.637,0,0,0-2.859,2.71,10.622,10.622,0,0,0-.655,1.475,10.956,10.956,0,0,0-.366,1.321,8.642,8.642,0,0,0-.17,1.338q-.034.687-.034,1.526a18.358,18.358,0,0,0,.366,3.679,9.445,9.445,0,0,0,1.2,3.131,6.138,6.138,0,0,0,2.229,2.075,9.56,9.56,0,0,0,4.424.772h6.942l2.6-4.785h-6.466a11.335,11.335,0,0,1-3.454-.377,3.76,3.76,0,0,1-1.786-2.281h11.927Zm-6.338-5.609a6.376,6.376,0,0,1,.45,1.853h-6.278a3.519,3.519,0,0,1,1-2.332,2.7,2.7,0,0,1,2.288-.755,5.407,5.407,0,0,1,.842.069,1.812,1.812,0,0,1,.655.206A2.263,2.263,0,0,1,771.535,860.931Zm-3.565-7.2h2.025l.306-.823h.63a6.519,6.519,0,0,0,1.633-.138,1.733,1.733,0,0,0,.962-.874,3.14,3.14,0,0,0,.4-1.578,3.048,3.048,0,0,0-.391-1.647,1.7,1.7,0,0,0-.9-.952,5.444,5.444,0,0,0-1.634-.18H767.97l.63,1.938h1.5a3.808,3.808,0,0,1,1.387.172.66.66,0,0,1,.383.669.533.533,0,0,1-.331.506,2.138,2.138,0,0,1-.927.163h-1.974Z" transform="translate(-657.281 -847.537)" fill="#1a1818"/>
    </g>
    <path id="Path_398" data-name="Path 398" d="M215.566,860.5c1.579-1.138.974-4.368.339-7.786-.353-1.882-.749-4.009-.5-4.782s1.846-2.241,3.251-3.542c2.538-2.359,4.931-4.582,4.384-6.427l-.014-.033-.008-.035c-.61-1.825-3.848-2.279-7.283-2.762-1.9-.264-4.052-.567-4.7-1.045s-1.549-2.458-2.339-4.2c-1.443-3.164-2.8-6.159-4.749-6.188s-3.4,2.928-4.931,6.058c-.838,1.717-1.8,3.663-2.457,4.129s-2.822.707-4.726.921c-3.466.388-6.745.756-7.382,2.594a2.255,2.255,0,0,0,.044,1.453c.508,1.514,2.408,3.313,4.207,5.086,1.286,1.268,3.735,1.511,5.944.868.878-.255,4.576-2.033,3.479-3.672s-3.3-4.7-3.3-4.7l1.954-.443,8,5.193,6.74-1.435c2.287-.718,4.214-.4,4.463.384.265.839-1.151,2.147-3.438,2.866l-6.348,2.676-3.578,8.832-1.857.754s.051-3.765.01-5.735-4.094-1.313-4.96-1.021c-2.18.736-4.047,2.335-4.373,4.109-.456,2.482-.981,5.042-.528,6.573a2.258,2.258,0,0,0,.8,1.217c1.578,1.142,4.476-.431,7.54-2.094,1.684-.913,3.6-1.95,4.4-1.947s2.712,1.051,4.384,1.98C211.1,860.039,213.982,861.632,215.566,860.5Z" transform="translate(0 0)" fill="#f16112"/>
  </g>
</svg>
